<svg xmlns="http://www.w3.org/2000/svg" viewBox="0 0 1920 400">
  <title>Asset 4</title>
  <g id="Layer_2" data-name="Layer 2">
    <g id="Layer_1-2" data-name="Layer 1">
      <path d="M120,117A120,120,0,0,1,0,0H0V400H1920V0h0a120,120,0,0,1-120,117A120,120,0,0,1,1680,0h0a120,120,0,0,1-120,117A120,120,0,0,1,1440,0h0a120,120,0,0,1-120,117A120,120,0,0,1,1200,0h0a120,120,0,0,1-120,117A120,120,0,0,1,960,0h0A120,120,0,0,1,840,117,120,120,0,0,1,720,0h0A120,120,0,0,1,600,117,120,120,0,0,1,480,0h0A120,120,0,0,1,360,117,120,120,0,0,1,240,0h0A120,120,0,0,1,120,117" fill="#1b75bc"/>
    </g>
  </g>
</svg>
