<svg xmlns="http://www.w3.org/2000/svg" viewBox="0 0 2036.1 400">
  <title>Asset 7</title>
  <g id="Layer_2" data-name="Layer 2">
    <g id="Layer_1-2" data-name="Layer 1">
      <g>
        <path d="M120,117A120,120,0,0,1,0,0H0V400H1920V0h0a120,120,0,0,1-120,117A120,120,0,0,1,1680,0h0a120,120,0,0,1-120,117A120,120,0,0,1,1440,0h0a120,120,0,0,1-120,117A120,120,0,0,1,1200,0h0a120,120,0,0,1-120,117A120,120,0,0,1,960,0h0A120,120,0,0,1,840,117,120,120,0,0,1,720,0h0A120,120,0,0,1,600,117,120,120,0,0,1,480,0h0A120,120,0,0,1,360,117,120,120,0,0,1,240,0h0A120,120,0,0,1,120,117" fill="#1b75bc"/>
        <path d="M2036.1,0a120,120,0,0,1-120,117,120,120,0,0,1-120-117h0a120,120,0,0,1-120,117,120,120,0,0,1-120-117h0a120,120,0,0,1-120,117,120,120,0,0,1-120-117h0a120,120,0,0,1-120,117,120,120,0,0,1-120-117h0a120,120,0,0,1-120,117A120,120,0,0,1,836.1,0h0a120,120,0,0,1-120,117A120,120,0,0,1,596.1,0h0a120,120,0,0,1-120,117A120,120,0,0,1,356.1,0h0a120,120,0,0,1-120,117A120,120,0,0,1,116.1,0h0V400h1920V0Z" fill="#00aeef"/>
      </g>
    </g>
  </g>
</svg>
