<svg xmlns="http://www.w3.org/2000/svg" viewBox="0 0 1173.1 631.7">
  <title>Asset 1</title>
  <g id="Layer_2" data-name="Layer 2">
    <g id="Layer_1-2" data-name="Layer 1">
      <g>
        <path d="M22.8,0a12.2,12.2,0,0,1,0,24.3A12.2,12.2,0,1,1,22.8,0M45.4,67.1,36.3,30.7a4.5,4.5,0,0,0-4.4-3.4H29.7a16.5,16.5,0,0,1-13.9,0H13.7a4.6,4.6,0,0,0-4.5,3.4L.1,67.1a4.6,4.6,0,0,0,4.5,5.7H15.2V92.5A4.5,4.5,0,0,0,19.7,97h6.1a4.5,4.5,0,0,0,4.5-4.5V72.8H40.9a4.6,4.6,0,0,0,4.5-5.7Z" fill="#d3d3d3" style="isolation: isolate"/>
        <path d="M82,0A12.2,12.2,0,1,1,69.9,12.1,12.1,12.1,0,0,1,82,0m22.6,67.1L95.5,30.7a4.5,4.5,0,0,0-4.4-3.4H88.9a16.3,16.3,0,0,1-13.8,0H72.9a4.5,4.5,0,0,0-4.4,3.4L59.4,67.1a4.6,4.6,0,0,0,4.4,5.7H74.4V92.5A4.5,4.5,0,0,0,79,97h6a4.6,4.6,0,0,0,4.6-4.5V72.8h10.6a4.6,4.6,0,0,0,4.4-5.7Z" fill="#d3d3d3" style="isolation: isolate"/>
        <path d="M141.3,0a12.2,12.2,0,1,1-12.2,12.1A12.1,12.1,0,0,1,141.3,0m22.6,67.1-9.1-36.4a4.6,4.6,0,0,0-4.4-3.4h-2.2a16.5,16.5,0,0,1-13.9,0h-2.2a4.6,4.6,0,0,0-4.4,3.4l-9.1,36.4a4.6,4.6,0,0,0,4.4,5.7h10.7V92.5a4.5,4.5,0,0,0,4.5,4.5h6.1a4.5,4.5,0,0,0,4.5-4.5V72.8h10.6a4.6,4.6,0,0,0,4.5-5.7Z" fill="#d3d3d3" style="isolation: isolate"/>
        <path d="M200.5,0a12.2,12.2,0,1,1-12.1,12.1A12.1,12.1,0,0,1,200.5,0m22.6,67.1L214,30.7a4.5,4.5,0,0,0-4.4-3.4h-2.2a16.5,16.5,0,0,1-13.9,0h-2.1a4.5,4.5,0,0,0-4.4,3.4l-9.1,36.4a4.5,4.5,0,0,0,4.4,5.7h10.6V92.5a4.5,4.5,0,0,0,4.5,4.5h6.1a4.6,4.6,0,0,0,4.6-4.5V72.8h10.6a4.6,4.6,0,0,0,4.4-5.7Z" fill="#d3d3d3" style="isolation: isolate"/>
        <path d="M259.7,0a12.2,12.2,0,1,1-12.1,12.1A12.2,12.2,0,0,1,259.7,0m22.7,67.1-9.1-36.4a4.7,4.7,0,0,0-4.5-3.4h-2.1a16.5,16.5,0,0,1-13.9,0h-2.2a4.5,4.5,0,0,0-4.4,3.4l-9.1,36.4a4.6,4.6,0,0,0,4.4,5.7h10.6V92.5a4.6,4.6,0,0,0,4.6,4.5h6.1a4.5,4.5,0,0,0,4.5-4.5V72.8h10.6a4.6,4.6,0,0,0,4.5-5.7Z" fill="#d3d3d3" style="isolation: isolate"/>
        <path d="M319,0a12.2,12.2,0,0,1,0,24.3A12.2,12.2,0,1,1,319,0m22.6,67.1-9.1-36.4a4.5,4.5,0,0,0-4.4-3.4h-2.2a16.5,16.5,0,0,1-13.9,0h-2.1a4.7,4.7,0,0,0-4.5,3.4l-9.1,36.4a4.6,4.6,0,0,0,4.5,5.7h10.6V92.5a4.5,4.5,0,0,0,4.5,4.5H322a4.5,4.5,0,0,0,4.5-4.5V72.8h10.7a4.6,4.6,0,0,0,4.4-5.7Z" fill="#d3d3d3" style="isolation: isolate"/>
        <path d="M378.2,0a12.2,12.2,0,1,1-12.1,12.1A12.2,12.2,0,0,1,378.2,0m22.6,67.1-9.1-36.4a4.5,4.5,0,0,0-4.4-3.4h-2.1a16.5,16.5,0,0,1-13.9,0h-2.2a4.5,4.5,0,0,0-4.4,3.4l-9.1,36.4a4.6,4.6,0,0,0,4.4,5.7h10.6V92.5a4.5,4.5,0,0,0,4.6,4.5h6a4.5,4.5,0,0,0,4.6-4.5V72.8h10.6a4.5,4.5,0,0,0,4.4-5.7Z" fill="#d3d3d3" style="isolation: isolate"/>
        <path d="M437.5,0a12.2,12.2,0,0,1,0,24.3,12.2,12.2,0,1,1,0-24.3m22.6,67.1L451,30.7a4.6,4.6,0,0,0-4.4-3.4h-2.2a16.5,16.5,0,0,1-13.9,0h-2.2a4.6,4.6,0,0,0-4.4,3.4l-9.1,36.4a4.6,4.6,0,0,0,4.4,5.7h10.7V92.5a4.5,4.5,0,0,0,4.5,4.5h6.1a4.5,4.5,0,0,0,4.5-4.5V72.8h10.6a4.6,4.6,0,0,0,4.5-5.7Z" fill="#d3d3d3" style="isolation: isolate"/>
        <path d="M496.7,0a12.2,12.2,0,1,1-12.1,12.1A12.1,12.1,0,0,1,496.7,0m22.6,67.1-9.1-36.4a4.5,4.5,0,0,0-4.4-3.4h-2.2a16.5,16.5,0,0,1-13.9,0h-2.1a4.5,4.5,0,0,0-4.4,3.4l-9.1,36.4a4.6,4.6,0,0,0,4.4,5.7h10.6V92.5a4.5,4.5,0,0,0,4.6,4.5h6a4.6,4.6,0,0,0,4.6-4.5V72.8h10.6a4.6,4.6,0,0,0,4.4-5.7Z" fill="#d3d3d3" style="isolation: isolate"/>
        <path d="M555.9,0a12.2,12.2,0,1,1-12.1,12.1A12.2,12.2,0,0,1,555.9,0m22.7,67.1-9.1-36.4a4.7,4.7,0,0,0-4.5-3.4h-2.1a16.5,16.5,0,0,1-13.9,0h-2.2a4.5,4.5,0,0,0-4.4,3.4l-9.1,36.4a4.6,4.6,0,0,0,4.4,5.7h10.6V92.5a4.6,4.6,0,0,0,4.6,4.5H559a4.5,4.5,0,0,0,4.5-4.5V72.8h10.6a4.6,4.6,0,0,0,4.5-5.7Z" fill="#d3d3d3" style="isolation: isolate"/>
        <path d="M22.8,106.8a12.2,12.2,0,1,1-12.1,12.1,12.2,12.2,0,0,1,12.1-12.1m22.6,67.1-9.1-36.3a4.5,4.5,0,0,0-4.4-3.5H29.8a16.5,16.5,0,0,1-13.9,0H13.7a4.5,4.5,0,0,0-4.4,3.5L.2,173.9a4.6,4.6,0,0,0,4.4,5.7H15.2v19.7a4.7,4.7,0,0,0,4.6,4.6h6a4.6,4.6,0,0,0,4.6-4.6V179.6H41a4.5,4.5,0,0,0,4.4-5.7Z" fill="#d3d3d3" style="isolation: isolate"/>
        <path d="M82.1,106.8a12.2,12.2,0,0,1,0,24.3,12.2,12.2,0,1,1,0-24.3m22.6,67.1-9.1-36.3a4.5,4.5,0,0,0-4.4-3.5H89a16.5,16.5,0,0,1-13.9,0H73a4.7,4.7,0,0,0-4.5,3.5l-9.1,36.3a4.6,4.6,0,0,0,4.5,5.7H74.5v19.7a4.6,4.6,0,0,0,4.5,4.6h6.1a4.6,4.6,0,0,0,4.5-4.6V179.6h10.7a4.6,4.6,0,0,0,4.4-5.7Z" fill="#d3d3d3" style="isolation: isolate"/>
        <path d="M141.3,106.8a12.2,12.2,0,1,1-12.1,12.1,12.1,12.1,0,0,1,12.1-12.1m22.6,67.1-9.1-36.3a4.5,4.5,0,0,0-4.4-3.5h-2.1a16.5,16.5,0,0,1-13.9,0h-2.2a4.5,4.5,0,0,0-4.4,3.5l-9.1,36.3a4.6,4.6,0,0,0,4.4,5.7h10.6v19.7a4.6,4.6,0,0,0,4.6,4.6h6a4.7,4.7,0,0,0,4.6-4.6V179.6h10.6a4.6,4.6,0,0,0,4.4-5.7Z" fill="#d3d3d3" style="isolation: isolate"/>
        <path d="M200.6,106.8a12.2,12.2,0,1,1-12.2,12.1,12.1,12.1,0,0,1,12.2-12.1m22.6,67.1-9.1-36.3a4.6,4.6,0,0,0-4.4-3.5h-2.2a16.5,16.5,0,0,1-13.9,0h-2.2a4.6,4.6,0,0,0-4.4,3.5l-9.1,36.3a4.6,4.6,0,0,0,4.4,5.7H193v19.7a4.6,4.6,0,0,0,4.5,4.6h6.1a4.6,4.6,0,0,0,4.5-4.6V179.6h10.6a4.6,4.6,0,0,0,4.5-5.7Z" fill="#d3d3d3" style="isolation: isolate"/>
        <path d="M259.8,106.8a12.2,12.2,0,1,1-12.1,12.1,12.1,12.1,0,0,1,12.1-12.1m22.6,67.1-9.1-36.3a4.5,4.5,0,0,0-4.4-3.5h-2.2a16.5,16.5,0,0,1-13.9,0h-2.1a4.5,4.5,0,0,0-4.4,3.5l-9.1,36.3a4.5,4.5,0,0,0,4.4,5.7h10.6v19.7a4.6,4.6,0,0,0,4.5,4.6h6.1a4.7,4.7,0,0,0,4.6-4.6V179.6H278a4.6,4.6,0,0,0,4.4-5.7Z" fill="#d3d3d3" style="isolation: isolate"/>
        <path d="M319,106.8a12.2,12.2,0,1,1-12.1,12.1A12.2,12.2,0,0,1,319,106.8m22.7,67.1-9.1-36.3a4.7,4.7,0,0,0-4.5-3.5H326a16.5,16.5,0,0,1-13.9,0h-2.2a4.5,4.5,0,0,0-4.4,3.5l-9.1,36.3a4.6,4.6,0,0,0,4.4,5.7h10.6v19.7a4.7,4.7,0,0,0,4.6,4.6h6.1a4.6,4.6,0,0,0,4.5-4.6V179.6h10.6a4.6,4.6,0,0,0,4.5-5.7Z" fill="#d3d3d3" style="isolation: isolate"/>
        <path d="M378.3,106.8a12.2,12.2,0,0,1,0,24.3,12.2,12.2,0,1,1,0-24.3m22.6,67.1-9.1-36.3a4.5,4.5,0,0,0-4.4-3.5h-2.2a16.5,16.5,0,0,1-13.9,0h-2.1a4.7,4.7,0,0,0-4.5,3.5l-9.1,36.3a4.6,4.6,0,0,0,4.5,5.7h10.6v19.7a4.6,4.6,0,0,0,4.5,4.6h6.1a4.6,4.6,0,0,0,4.5-4.6V179.6h10.7a4.6,4.6,0,0,0,4.4-5.7Z" fill="#d3d3d3" style="isolation: isolate"/>
        <path d="M437.5,106.8a12.2,12.2,0,1,1-12.1,12.1,12.2,12.2,0,0,1,12.1-12.1m22.6,67.1L451,137.6a4.5,4.5,0,0,0-4.4-3.5h-2.1a16.5,16.5,0,0,1-13.9,0h-2.2a4.5,4.5,0,0,0-4.4,3.5l-9.1,36.3a4.6,4.6,0,0,0,4.4,5.7h10.6v19.7a4.6,4.6,0,0,0,4.6,4.6h6a4.6,4.6,0,0,0,4.6-4.6V179.6h10.6a4.5,4.5,0,0,0,4.4-5.7Z" fill="#d3d3d3" style="isolation: isolate"/>
        <path d="M496.8,106.8a12.2,12.2,0,0,1,0,24.3,12.2,12.2,0,1,1,0-24.3m22.6,67.1-9.1-36.3a4.6,4.6,0,0,0-4.4-3.5h-2.2a16.5,16.5,0,0,1-13.9,0h-2.2a4.6,4.6,0,0,0-4.4,3.5l-9.1,36.3a4.6,4.6,0,0,0,4.4,5.7h10.7v19.7a4.6,4.6,0,0,0,4.5,4.6h6.1a4.6,4.6,0,0,0,4.5-4.6V179.6h10.6a4.6,4.6,0,0,0,4.5-5.7Z" fill="#d3d3d3" style="isolation: isolate"/>
        <path d="M556,106.8a12.2,12.2,0,1,1-12.1,12.1A12.1,12.1,0,0,1,556,106.8m22.6,67.1-9.1-36.3a4.5,4.5,0,0,0-4.4-3.5h-2.2a16.5,16.5,0,0,1-13.9,0h-2.1a4.5,4.5,0,0,0-4.4,3.5l-9.1,36.3a4.6,4.6,0,0,0,4.4,5.7h10.6v19.7a4.6,4.6,0,0,0,4.6,4.6h6a4.7,4.7,0,0,0,4.6-4.6V179.6h10.6a4.6,4.6,0,0,0,4.4-5.7Z" fill="#d3d3d3" style="isolation: isolate"/>
        <path d="M23.8,213.4a12.2,12.2,0,1,1-12.1,12.1,12.1,12.1,0,0,1,12.1-12.1m22.6,67.2-9.1-36.4a4.5,4.5,0,0,0-4.4-3.5H30.7a16.3,16.3,0,0,1-13.8,0H14.7a4.5,4.5,0,0,0-4.4,3.5L1.2,280.6a4.5,4.5,0,0,0,4.4,5.6H16.2v19.7a4.6,4.6,0,0,0,4.6,4.6h6a4.7,4.7,0,0,0,4.6-4.6V286.2H42a4.5,4.5,0,0,0,4.4-5.6Z" fill="#d3d3d3" style="isolation: isolate"/>
        <path d="M83.1,213.4a12.2,12.2,0,1,1-12.2,12.1,12.2,12.2,0,0,1,12.2-12.1m22.6,67.2-9.1-36.4a4.6,4.6,0,0,0-4.4-3.5H90a16.5,16.5,0,0,1-13.9,0H73.9a4.6,4.6,0,0,0-4.4,3.5l-9.1,36.4a4.6,4.6,0,0,0,4.4,5.6H75.5v19.7a4.6,4.6,0,0,0,4.5,4.6h6.1a4.6,4.6,0,0,0,4.5-4.6V286.2h10.6a4.6,4.6,0,0,0,4.5-5.6Z" fill="#d3d3d3" style="isolation: isolate"/>
        <path d="M142.3,213.4a12.2,12.2,0,1,1-12.1,12.1,12.1,12.1,0,0,1,12.1-12.1m22.6,67.2-9.1-36.4a4.5,4.5,0,0,0-4.4-3.5h-2.2a16.5,16.5,0,0,1-13.9,0h-2.1a4.5,4.5,0,0,0-4.4,3.5l-9.1,36.4a4.5,4.5,0,0,0,4.4,5.6h10.6v19.7a4.6,4.6,0,0,0,4.5,4.6h6.1a4.7,4.7,0,0,0,4.6-4.6V286.2h10.6a4.6,4.6,0,0,0,4.4-5.6Z" fill="#d3d3d3" style="isolation: isolate"/>
        <path d="M201.5,213.4a12.2,12.2,0,1,1-12.1,12.1,12.2,12.2,0,0,1,12.1-12.1m22.7,67.2-9.1-36.4a4.7,4.7,0,0,0-4.5-3.5h-2.1a16.5,16.5,0,0,1-13.9,0h-2.2a4.5,4.5,0,0,0-4.4,3.5l-9.1,36.4a4.6,4.6,0,0,0,4.4,5.6h10.6v19.7a4.7,4.7,0,0,0,4.6,4.6h6.1a4.6,4.6,0,0,0,4.5-4.6V286.2h10.6a4.6,4.6,0,0,0,4.5-5.6Z" fill="#d3d3d3" style="isolation: isolate"/>
        <path d="M260.8,213.4a12.2,12.2,0,1,1-12.2,12.1,12.1,12.1,0,0,1,12.2-12.1m22.6,67.2-9.1-36.4a4.5,4.5,0,0,0-4.4-3.5h-2.2a16.5,16.5,0,0,1-13.9,0h-2.1a4.7,4.7,0,0,0-4.5,3.5l-9.1,36.4a4.6,4.6,0,0,0,4.5,5.6h10.6v19.7a4.6,4.6,0,0,0,4.5,4.6h6.1a4.6,4.6,0,0,0,4.5-4.6V286.2H279a4.6,4.6,0,0,0,4.4-5.6Z" fill="#d3d3d3" style="isolation: isolate"/>
        <path d="M320,213.4a12.2,12.2,0,1,1-12.1,12.1A12.2,12.2,0,0,1,320,213.4m22.6,67.2-9.1-36.4a4.5,4.5,0,0,0-4.4-3.5H327a16.5,16.5,0,0,1-13.9,0h-2.2a4.5,4.5,0,0,0-4.4,3.5l-9.1,36.4a4.5,4.5,0,0,0,4.4,5.6h10.6v19.7a4.6,4.6,0,0,0,4.6,4.6h6a4.6,4.6,0,0,0,4.6-4.6V286.2h10.6a4.5,4.5,0,0,0,4.4-5.6Z" fill="#d3d3d3" style="isolation: isolate"/>
        <path d="M379.3,213.4a12.2,12.2,0,1,1-12.2,12.1,12.1,12.1,0,0,1,12.2-12.1m22.6,67.2-9.1-36.4a4.6,4.6,0,0,0-4.4-3.5h-2.2a16.5,16.5,0,0,1-13.9,0h-2.2a4.6,4.6,0,0,0-4.4,3.5l-9.1,36.4a4.6,4.6,0,0,0,4.4,5.6h10.7v19.7a4.6,4.6,0,0,0,4.5,4.6h6.1a4.6,4.6,0,0,0,4.5-4.6V286.2h10.6a4.6,4.6,0,0,0,4.5-5.6Z" fill="#d3d3d3" style="isolation: isolate"/>
        <path d="M438.5,213.4a12.2,12.2,0,1,1-12.1,12.1,12.1,12.1,0,0,1,12.1-12.1m22.6,67.2L452,244.2a4.5,4.5,0,0,0-4.4-3.5h-2.2a16.5,16.5,0,0,1-13.9,0h-2.1a4.5,4.5,0,0,0-4.4,3.5l-9.1,36.4a4.5,4.5,0,0,0,4.4,5.6h10.6v19.7a4.6,4.6,0,0,0,4.6,4.6h6a4.7,4.7,0,0,0,4.6-4.6V286.2h10.6a4.5,4.5,0,0,0,4.4-5.6Z" fill="#d3d3d3" style="isolation: isolate"/>
        <path d="M497.7,213.4a12.2,12.2,0,1,1-12.1,12.1,12.2,12.2,0,0,1,12.1-12.1m22.7,67.2-9.1-36.4a4.7,4.7,0,0,0-4.5-3.5h-2.1a16.5,16.5,0,0,1-13.9,0h-2.2a4.5,4.5,0,0,0-4.4,3.5l-9.1,36.4a4.6,4.6,0,0,0,4.4,5.6h10.6v19.7a4.7,4.7,0,0,0,4.6,4.6h6.1a4.6,4.6,0,0,0,4.5-4.6V286.2h10.6a4.6,4.6,0,0,0,4.5-5.6Z" fill="#d3d3d3" style="isolation: isolate"/>
        <path d="M557,213.4a12.2,12.2,0,1,1-12.1,12.1A12.1,12.1,0,0,1,557,213.4m22.6,67.2-9.1-36.4a4.5,4.5,0,0,0-4.4-3.5h-2.2a16.5,16.5,0,0,1-13.9,0h-2.1a4.5,4.5,0,0,0-4.4,3.5l-9.1,36.4a4.5,4.5,0,0,0,4.4,5.6h10.6v19.7a4.6,4.6,0,0,0,4.5,4.6H560a4.6,4.6,0,0,0,4.5-4.6V286.2h10.7a4.6,4.6,0,0,0,4.4-5.6Z" fill="#d3d3d3" style="isolation: isolate"/>
        <path d="M23.9,320.2a12.2,12.2,0,1,1-12.2,12.2,12.2,12.2,0,0,1,12.2-12.2m22.6,67.2L37.4,351a4.5,4.5,0,0,0-4.4-3.5H30.8a16.5,16.5,0,0,1-13.9,0H14.8a4.7,4.7,0,0,0-4.5,3.5L1.2,387.4A4.6,4.6,0,0,0,5.7,393H16.3v19.7a4.6,4.6,0,0,0,4.5,4.6h6.1a4.6,4.6,0,0,0,4.5-4.6V393H42.1a4.6,4.6,0,0,0,4.4-5.6Z" fill="#d3d3d3" style="isolation: isolate"/>
        <path d="M83.1,320.2A12.2,12.2,0,1,1,71,332.4a12.2,12.2,0,0,1,12.1-12.2m22.6,67.2L96.6,351a4.5,4.5,0,0,0-4.4-3.5H90.1a16.5,16.5,0,0,1-13.9,0H74a4.5,4.5,0,0,0-4.4,3.5l-9.1,36.4a4.5,4.5,0,0,0,4.4,5.6H75.5v19.7a4.6,4.6,0,0,0,4.6,4.6h6a4.7,4.7,0,0,0,4.6-4.6V393h10.6a4.5,4.5,0,0,0,4.4-5.6Z" fill="#d3d3d3" style="isolation: isolate"/>
        <path d="M142.4,320.2a12.2,12.2,0,1,1-12.2,12.2,12.2,12.2,0,0,1,12.2-12.2M165,387.4,155.9,351a4.6,4.6,0,0,0-4.4-3.5h-2.2a16.5,16.5,0,0,1-13.9,0h-2.2a4.6,4.6,0,0,0-4.4,3.5l-9.1,36.4a4.6,4.6,0,0,0,4.4,5.6h10.7v19.7a4.6,4.6,0,0,0,4.5,4.6h6.1a4.6,4.6,0,0,0,4.5-4.6V393h10.6a4.6,4.6,0,0,0,4.5-5.6Z" fill="#d3d3d3" style="isolation: isolate"/>
        <path d="M201.6,320.2a12.2,12.2,0,1,1-12.1,12.2,12.2,12.2,0,0,1,12.1-12.2m22.6,67.2L215.1,351a4.5,4.5,0,0,0-4.4-3.5h-2.2a16.5,16.5,0,0,1-13.9,0h-2.1a4.5,4.5,0,0,0-4.4,3.5L179,387.4a4.5,4.5,0,0,0,4.4,5.6H194v19.7a4.6,4.6,0,0,0,4.5,4.6h6.1a4.7,4.7,0,0,0,4.6-4.6V393h10.6a4.5,4.5,0,0,0,4.4-5.6Z" fill="#d3d3d3" style="isolation: isolate"/>
        <path d="M260.8,320.2a12.2,12.2,0,1,1-12.1,12.2,12.2,12.2,0,0,1,12.1-12.2m22.7,67.2L274.4,351a4.7,4.7,0,0,0-4.5-3.5h-2.1a16.5,16.5,0,0,1-13.9,0h-2.2a4.5,4.5,0,0,0-4.4,3.5l-9.1,36.4a4.6,4.6,0,0,0,4.4,5.6h10.6v19.7a4.7,4.7,0,0,0,4.6,4.6h6.1a4.6,4.6,0,0,0,4.5-4.6V393H279a4.6,4.6,0,0,0,4.5-5.6Z" fill="#d3d3d3" style="isolation: isolate"/>
        <path d="M320.1,320.2a12.2,12.2,0,1,1-12.2,12.2,12.2,12.2,0,0,1,12.2-12.2m22.6,67.2L333.6,351a4.5,4.5,0,0,0-4.4-3.5H327a16.5,16.5,0,0,1-13.9,0H311a4.7,4.7,0,0,0-4.5,3.5l-9.1,36.4a4.6,4.6,0,0,0,4.5,5.6h10.6v19.7a4.6,4.6,0,0,0,4.5,4.6h6.1a4.6,4.6,0,0,0,4.5-4.6V393h10.7a4.6,4.6,0,0,0,4.4-5.6Z" fill="#d3d3d3" style="isolation: isolate"/>
        <path d="M379.3,320.2a12.2,12.2,0,1,1-12.1,12.2,12.2,12.2,0,0,1,12.1-12.2m22.6,67.2L392.8,351a4.5,4.5,0,0,0-4.4-3.5h-2.1a16.5,16.5,0,0,1-13.9,0h-2.2a4.5,4.5,0,0,0-4.4,3.5l-9.1,36.4a4.5,4.5,0,0,0,4.4,5.6h10.6v19.7a4.6,4.6,0,0,0,4.6,4.6h6a4.6,4.6,0,0,0,4.6-4.6V393h10.6a4.5,4.5,0,0,0,4.4-5.6Z" fill="#d3d3d3" style="isolation: isolate"/>
        <path d="M438.6,320.2a12.2,12.2,0,1,1-12.2,12.2,12.2,12.2,0,0,1,12.2-12.2m22.6,67.2L452.1,351a4.6,4.6,0,0,0-4.4-3.5h-2.2a16.5,16.5,0,0,1-13.9,0h-2.2A4.6,4.6,0,0,0,425,351l-9.1,36.4a4.6,4.6,0,0,0,4.4,5.6H431v19.7a4.6,4.6,0,0,0,4.5,4.6h6.1a4.6,4.6,0,0,0,4.5-4.6V393h10.6a4.6,4.6,0,0,0,4.5-5.6Z" fill="#d3d3d3" style="isolation: isolate"/>
        <path d="M497.8,320.2a12.2,12.2,0,1,1-12.1,12.2,12.2,12.2,0,0,1,12.1-12.2m22.6,67.2L511.3,351a4.5,4.5,0,0,0-4.4-3.5h-2.2a16.5,16.5,0,0,1-13.9,0h-2.1a4.5,4.5,0,0,0-4.4,3.5l-9.1,36.4a4.5,4.5,0,0,0,4.4,5.6h10.6v19.7a4.6,4.6,0,0,0,4.6,4.6h6a4.7,4.7,0,0,0,4.6-4.6V393H516a4.5,4.5,0,0,0,4.4-5.6Z" fill="#d3d3d3" style="isolation: isolate"/>
        <path d="M557,320.2a12.2,12.2,0,1,1-12.1,12.2A12.2,12.2,0,0,1,557,320.2m22.7,67.2L570.6,351a4.6,4.6,0,0,0-4.5-3.5H564a16.5,16.5,0,0,1-13.9,0h-2.2a4.5,4.5,0,0,0-4.4,3.5l-9.1,36.4a4.6,4.6,0,0,0,4.4,5.6h10.6v19.7a4.7,4.7,0,0,0,4.6,4.6h6.1a4.6,4.6,0,0,0,4.5-4.6V393h10.6a4.6,4.6,0,0,0,4.5-5.6Z" fill="#d3d3d3" style="isolation: isolate"/>
        <path d="M615.9.1a12.2,12.2,0,1,1-12.2,12.2A12.2,12.2,0,0,1,615.9.1m22.6,67.2-9.1-36.4a4.5,4.5,0,0,0-4.4-3.5h-2.2a16.5,16.5,0,0,1-13.9,0h-2.1a4.7,4.7,0,0,0-4.5,3.5l-9.1,36.4a4.6,4.6,0,0,0,4.5,5.6h10.6V92.6a4.6,4.6,0,0,0,4.5,4.6h6.1a4.6,4.6,0,0,0,4.5-4.6V72.9h10.7a4.6,4.6,0,0,0,4.4-5.6Z" fill="#d3d3d3" style="isolation: isolate"/>
        <path d="M675.1.1A12.2,12.2,0,1,1,663,12.3,12.2,12.2,0,0,1,675.1.1m22.6,67.2-9.1-36.4a4.5,4.5,0,0,0-4.4-3.5h-2.1a16.5,16.5,0,0,1-13.9,0H666a4.5,4.5,0,0,0-4.4,3.5l-9.1,36.4a4.5,4.5,0,0,0,4.4,5.6h10.6V92.6a4.6,4.6,0,0,0,4.6,4.6h6a4.6,4.6,0,0,0,4.6-4.6V72.9h10.6a4.5,4.5,0,0,0,4.4-5.6Z" fill="#d3d3d3" style="isolation: isolate"/>
        <path d="M734.4.1a12.2,12.2,0,0,1,12.1,12.2,12.2,12.2,0,0,1-24.3,0A12.2,12.2,0,0,1,734.4.1M757,67.3l-9.1-36.4a4.6,4.6,0,0,0-4.4-3.5h-2.2a16.5,16.5,0,0,1-13.9,0h-2.2a4.6,4.6,0,0,0-4.4,3.5l-9.1,36.4a4.6,4.6,0,0,0,4.4,5.6h10.7V92.6a4.6,4.6,0,0,0,4.5,4.6h6.1a4.6,4.6,0,0,0,4.5-4.6V72.9h10.6a4.6,4.6,0,0,0,4.5-5.6Z" fill="#d3d3d3" style="isolation: isolate"/>
        <path d="M793.6.1a12.2,12.2,0,1,1-12.1,12.2A12.2,12.2,0,0,1,793.6.1m22.6,67.2-9.1-36.4a4.5,4.5,0,0,0-4.4-3.5h-2.2a16.5,16.5,0,0,1-13.9,0h-2.1a4.5,4.5,0,0,0-4.4,3.5L771,67.3a4.5,4.5,0,0,0,4.4,5.6H786V92.6a4.6,4.6,0,0,0,4.5,4.6h6.1a4.7,4.7,0,0,0,4.6-4.6V72.9h10.6a4.5,4.5,0,0,0,4.4-5.6Z" fill="#d3d3d3" style="isolation: isolate"/>
        <path d="M852.8.1A12.2,12.2,0,0,1,865,12.3,12.2,12.2,0,1,1,852.8.1m22.7,67.2-9.1-36.4a4.7,4.7,0,0,0-4.5-3.5h-2.1a16.5,16.5,0,0,1-13.9,0h-2.2a4.5,4.5,0,0,0-4.4,3.5l-9.1,36.4a4.6,4.6,0,0,0,4.4,5.6h10.6V92.6a4.7,4.7,0,0,0,4.6,4.6h6.1a4.6,4.6,0,0,0,4.5-4.6V72.9H871a4.6,4.6,0,0,0,4.5-5.6Z" fill="#d3d3d3" style="isolation: isolate"/>
        <path d="M912.1.1A12.2,12.2,0,1,1,900,12.3,12.2,12.2,0,0,1,912.1.1m22.6,67.2-9.1-36.4a4.5,4.5,0,0,0-4.4-3.5H919a16.5,16.5,0,0,1-13.9,0H903a4.7,4.7,0,0,0-4.5,3.5l-9,36.4a4.5,4.5,0,0,0,4.4,5.6h10.6V92.6a4.6,4.6,0,0,0,4.5,4.6h6.1a4.6,4.6,0,0,0,4.5-4.6V72.9h10.7a4.6,4.6,0,0,0,4.4-5.6Z" fill="#d3d3d3" style="isolation: isolate"/>
        <path d="M971.3.1a12.2,12.2,0,0,1,12.2,12.2A12.2,12.2,0,1,1,971.3.1m22.6,67.2-9.1-36.4a4.5,4.5,0,0,0-4.4-3.5h-2.1a16.5,16.5,0,0,1-13.9,0h-2.2a4.5,4.5,0,0,0-4.4,3.5l-9.1,36.4a4.6,4.6,0,0,0,4.4,5.6h10.6V92.6a4.7,4.7,0,0,0,4.6,4.6h6a4.6,4.6,0,0,0,4.6-4.6V72.9h10.6a4.5,4.5,0,0,0,4.4-5.6Z" fill="#d3d3d3" style="isolation: isolate"/>
        <path d="M1030.6.1a12.2,12.2,0,1,1-12.2,12.2A12.2,12.2,0,0,1,1030.6.1m22.6,67.2-9.1-36.4a4.6,4.6,0,0,0-4.4-3.5h-2.2a16.5,16.5,0,0,1-13.9,0h-2.2a4.6,4.6,0,0,0-4.4,3.5l-9.1,36.4a4.6,4.6,0,0,0,4.4,5.6H1023V92.6a4.6,4.6,0,0,0,4.5,4.6h6.1a4.6,4.6,0,0,0,4.5-4.6V72.9h10.6a4.6,4.6,0,0,0,4.5-5.6Z" fill="#d3d3d3" style="isolation: isolate"/>
        <path d="M1089.8.1a12.2,12.2,0,1,1-12.1,12.2A12.2,12.2,0,0,1,1089.8.1m22.6,67.2-9.1-36.4a4.5,4.5,0,0,0-4.4-3.5h-2.2a16.3,16.3,0,0,1-13.8,0h-2.2a4.5,4.5,0,0,0-4.4,3.5l-9.1,36.4a4.5,4.5,0,0,0,4.4,5.6h10.6V92.6a4.6,4.6,0,0,0,4.6,4.6h6a4.7,4.7,0,0,0,4.6-4.6V72.9H1108a4.5,4.5,0,0,0,4.4-5.6Z" fill="#d3d3d3" style="isolation: isolate"/>
        <path d="M1149,.1a12.2,12.2,0,0,1,12.2,12.2,12.2,12.2,0,0,1-24.3,0A12.2,12.2,0,0,1,1149,.1m22.7,67.2-9.1-36.4a4.6,4.6,0,0,0-4.5-3.5H1156a16.5,16.5,0,0,1-13.9,0h-2.2a4.5,4.5,0,0,0-4.4,3.5l-9.1,36.4a4.6,4.6,0,0,0,4.4,5.6h10.6V92.6a4.7,4.7,0,0,0,4.6,4.6h6.1a4.6,4.6,0,0,0,4.5-4.6V72.9h10.6a4.6,4.6,0,0,0,4.5-5.6Z" fill="#d3d3d3" style="isolation: isolate"/>
        <path d="M615.9,106.9a12.2,12.2,0,1,1,0,24.3,12.2,12.2,0,0,1,0-24.3m22.6,67.2-9.1-36.4a4.5,4.5,0,0,0-4.4-3.5h-2.1a16.5,16.5,0,0,1-13.9,0h-2.2a4.5,4.5,0,0,0-4.4,3.5l-9.1,36.4a4.6,4.6,0,0,0,4.4,5.6h10.6v19.7a4.6,4.6,0,0,0,4.6,4.6h6a4.5,4.5,0,0,0,4.6-4.6V179.7h10.6a4.5,4.5,0,0,0,4.4-5.6Z" fill="#d3d3d3" style="isolation: isolate"/>
        <path d="M675.2,106.9A12.2,12.2,0,1,1,663,119.1a12.2,12.2,0,0,1,12.2-12.2m22.6,67.2-9.1-36.4a4.5,4.5,0,0,0-4.4-3.5h-2.2a16.5,16.5,0,0,1-13.9,0h-2.1a4.7,4.7,0,0,0-4.5,3.5l-9.1,36.4a4.6,4.6,0,0,0,4.5,5.6h10.6v19.7a4.5,4.5,0,0,0,4.5,4.6h6.1a4.5,4.5,0,0,0,4.5-4.6V179.7h10.7a4.6,4.6,0,0,0,4.4-5.6Z" fill="#d3d3d3" style="isolation: isolate"/>
        <path d="M734.4,106.9a12.2,12.2,0,1,1-12.1,12.2,12.2,12.2,0,0,1,12.1-12.2M757,174.1l-9.1-36.4a4.5,4.5,0,0,0-4.4-3.5h-2.1a16.5,16.5,0,0,1-13.9,0h-2.2a4.5,4.5,0,0,0-4.4,3.5l-9.1,36.4a4.5,4.5,0,0,0,4.4,5.6h10.6v19.7a4.5,4.5,0,0,0,4.6,4.6h6a4.5,4.5,0,0,0,4.6-4.6V179.7h10.6a4.5,4.5,0,0,0,4.4-5.6Z" fill="#d3d3d3" style="isolation: isolate"/>
        <path d="M793.7,106.9a12.2,12.2,0,1,1-12.2,12.2,12.2,12.2,0,0,1,12.2-12.2m22.6,67.2-9.1-36.4a4.6,4.6,0,0,0-4.4-3.5h-2.2a16.5,16.5,0,0,1-13.9,0h-2.2a4.6,4.6,0,0,0-4.4,3.5L771,174.1a4.6,4.6,0,0,0,4.4,5.6h10.7v19.7a4.5,4.5,0,0,0,4.5,4.6h6.1a4.5,4.5,0,0,0,4.5-4.6V179.7h10.6a4.6,4.6,0,0,0,4.5-5.6Z" fill="#d3d3d3" style="isolation: isolate"/>
        <path d="M852.9,106.9a12.2,12.2,0,1,1-12.1,12.2,12.2,12.2,0,0,1,12.1-12.2m22.6,67.2-9.1-36.4a4.5,4.5,0,0,0-4.4-3.5h-2.2a16.5,16.5,0,0,1-13.9,0h-2.1a4.5,4.5,0,0,0-4.4,3.5l-9.1,36.4a4.5,4.5,0,0,0,4.4,5.6h10.6v19.7a4.5,4.5,0,0,0,4.5,4.6h6.1a4.6,4.6,0,0,0,4.6-4.6V179.7h10.6a4.5,4.5,0,0,0,4.4-5.6Z" fill="#d3d3d3" style="isolation: isolate"/>
        <path d="M912.1,106.9A12.2,12.2,0,1,1,900,119.1a12.2,12.2,0,0,1,12.1-12.2m22.7,67.2-9.1-36.4a4.7,4.7,0,0,0-4.5-3.5h-2.1a16.5,16.5,0,0,1-13.9,0H903a4.5,4.5,0,0,0-4.4,3.5l-9.1,36.4a4.6,4.6,0,0,0,4.4,5.6h10.6v19.7a4.6,4.6,0,0,0,4.6,4.6h6.1a4.5,4.5,0,0,0,4.5-4.6V179.7h10.6a4.6,4.6,0,0,0,4.5-5.6Z" fill="#d3d3d3" style="isolation: isolate"/>
        <path d="M971.4,106.9a12.2,12.2,0,1,1-12.1,12.2,12.2,12.2,0,0,1,12.1-12.2M994,174.1l-9.1-36.4a4.5,4.5,0,0,0-4.4-3.5h-2.2a16.5,16.5,0,0,1-13.9,0h-2.1a4.5,4.5,0,0,0-4.4,3.5l-9.1,36.4a4.5,4.5,0,0,0,4.4,5.6h10.6v19.7a4.5,4.5,0,0,0,4.5,4.6h6.1a4.5,4.5,0,0,0,4.5-4.6V179.7h10.7a4.6,4.6,0,0,0,4.4-5.6Z" fill="#d3d3d3" style="isolation: isolate"/>
        <path d="M1030.6,106.9a12.2,12.2,0,1,1,0,24.3,12.2,12.2,0,0,1,0-24.3m22.6,67.2-9.1-36.4a4.5,4.5,0,0,0-4.4-3.5h-2.1a16.5,16.5,0,0,1-13.9,0h-2.2a4.5,4.5,0,0,0-4.4,3.5l-9.1,36.4a4.6,4.6,0,0,0,4.4,5.6H1023v19.7a4.6,4.6,0,0,0,4.6,4.6h6a4.5,4.5,0,0,0,4.6-4.6V179.7h10.6a4.5,4.5,0,0,0,4.4-5.6Z" fill="#d3d3d3" style="isolation: isolate"/>
        <path d="M1089.9,106.9a12.2,12.2,0,1,1-12.2,12.2,12.2,12.2,0,0,1,12.2-12.2m22.6,67.2-9.1-36.4a4.5,4.5,0,0,0-4.4-3.5h-2.2a16.5,16.5,0,0,1-13.9,0h-2.1a4.6,4.6,0,0,0-4.5,3.5l-9.1,36.4a4.6,4.6,0,0,0,4.5,5.6h10.6v19.7a4.5,4.5,0,0,0,4.5,4.6h6.1a4.5,4.5,0,0,0,4.5-4.6V179.7H1108a4.6,4.6,0,0,0,4.5-5.6Z" fill="#d3d3d3" style="isolation: isolate"/>
        <path d="M1149.1,106.9a12.2,12.2,0,1,1-12.1,12.2,12.2,12.2,0,0,1,12.1-12.2m22.6,67.2-9.1-36.4a4.5,4.5,0,0,0-4.4-3.5H1156a16.3,16.3,0,0,1-13.8,0H1140a4.5,4.5,0,0,0-4.4,3.5l-9.1,36.4a4.5,4.5,0,0,0,4.4,5.6h10.6v19.7a4.5,4.5,0,0,0,4.6,4.6h6a4.6,4.6,0,0,0,4.6-4.6V179.7h10.6a4.5,4.5,0,0,0,4.4-5.6Z" fill="#d3d3d3" style="isolation: isolate"/>
        <path d="M616.9,213.5a12.2,12.2,0,1,1-12.1,12.2,12.2,12.2,0,0,1,12.1-12.2m22.6,67.2-9.1-36.4a4.6,4.6,0,0,0-4.4-3.5h-2.1a16.5,16.5,0,0,1-13.9,0h-2.2a4.6,4.6,0,0,0-4.4,3.5l-9.1,36.4a4.5,4.5,0,0,0,4.4,5.6h10.6V306a4.5,4.5,0,0,0,4.6,4.6h6a4.5,4.5,0,0,0,4.6-4.6V286.3h10.6a4.5,4.5,0,0,0,4.4-5.6Z" fill="#d3d3d3" style="isolation: isolate"/>
        <path d="M676.2,213.5A12.2,12.2,0,1,1,664,225.7a12.2,12.2,0,0,1,12.2-12.2m22.6,67.2-9.1-36.4a4.7,4.7,0,0,0-4.4-3.5h-2.2a16.5,16.5,0,0,1-13.9,0H667a4.7,4.7,0,0,0-4.4,3.5l-9.1,36.4a4.6,4.6,0,0,0,4.4,5.6h10.7V306a4.5,4.5,0,0,0,4.5,4.6h6.1a4.5,4.5,0,0,0,4.5-4.6V286.3h10.6a4.5,4.5,0,0,0,4.5-5.6Z" fill="#d3d3d3" style="isolation: isolate"/>
        <path d="M735.4,213.5a12.2,12.2,0,1,1-12.1,12.2,12.2,12.2,0,0,1,12.1-12.2M758,280.7l-9.1-36.4a4.6,4.6,0,0,0-4.4-3.5h-2.2a16.5,16.5,0,0,1-13.9,0h-2.1a4.6,4.6,0,0,0-4.4,3.5l-9.1,36.4a4.5,4.5,0,0,0,4.4,5.6h10.6V306a4.5,4.5,0,0,0,4.5,4.6h6.1A4.6,4.6,0,0,0,743,306V286.3h10.6a4.5,4.5,0,0,0,4.4-5.6Z" fill="#d3d3d3" style="isolation: isolate"/>
        <path d="M794.6,213.5a12.2,12.2,0,1,1,0,24.3,12.2,12.2,0,0,1,0-24.3m22.7,67.2-9.1-36.4a4.8,4.8,0,0,0-4.5-3.5h-2.1a16.5,16.5,0,0,1-13.9,0h-2.2a4.6,4.6,0,0,0-4.4,3.5L772,280.7a4.6,4.6,0,0,0,4.4,5.6H787V306a4.6,4.6,0,0,0,4.6,4.6h6.1a4.5,4.5,0,0,0,4.5-4.6V286.3h10.6a4.5,4.5,0,0,0,4.5-5.6Z" fill="#d3d3d3" style="isolation: isolate"/>
        <path d="M853.9,213.5a12.2,12.2,0,1,1-12.1,12.2,12.2,12.2,0,0,1,12.1-12.2m22.6,67.2-9.1-36.4a4.6,4.6,0,0,0-4.4-3.5h-2.2a16.5,16.5,0,0,1-13.9,0h-2.1a4.8,4.8,0,0,0-4.5,3.5l-9.1,36.4a4.6,4.6,0,0,0,4.5,5.6h10.6V306a4.5,4.5,0,0,0,4.5,4.6h6.1a4.5,4.5,0,0,0,4.5-4.6V286.3h10.7a4.5,4.5,0,0,0,4.4-5.6Z" fill="#d3d3d3" style="isolation: isolate"/>
        <path d="M913.1,213.5a12.2,12.2,0,1,1,0,24.3,12.2,12.2,0,0,1,0-24.3m22.6,67.2-9.1-36.4a4.6,4.6,0,0,0-4.4-3.5h-2.1a16.5,16.5,0,0,1-13.9,0H904a4.6,4.6,0,0,0-4.4,3.5l-9.1,36.4a4.6,4.6,0,0,0,4.4,5.6h10.6V306a4.6,4.6,0,0,0,4.6,4.6h6a4.5,4.5,0,0,0,4.6-4.6V286.3h10.6a4.4,4.4,0,0,0,4.4-5.6Z" fill="#d3d3d3" style="isolation: isolate"/>
        <path d="M972.4,213.5a12.2,12.2,0,1,1-12.2,12.2,12.2,12.2,0,0,1,12.2-12.2M995,280.7l-9.1-36.4a4.7,4.7,0,0,0-4.4-3.5h-2.2a16.5,16.5,0,0,1-13.9,0h-2.2a4.7,4.7,0,0,0-4.4,3.5l-9.1,36.4a4.6,4.6,0,0,0,4.4,5.6h10.7V306a4.5,4.5,0,0,0,4.5,4.6h6.1a4.5,4.5,0,0,0,4.5-4.6V286.3h10.6a4.5,4.5,0,0,0,4.5-5.6Z" fill="#d3d3d3" style="isolation: isolate"/>
        <path d="M1031.6,213.5a12.2,12.2,0,1,1-12.1,12.2,12.2,12.2,0,0,1,12.1-12.2m22.6,67.2-9.1-36.4a4.6,4.6,0,0,0-4.4-3.5h-2.2a16.3,16.3,0,0,1-13.8,0h-2.2a4.6,4.6,0,0,0-4.4,3.5l-9.1,36.4a4.5,4.5,0,0,0,4.4,5.6H1024V306a4.5,4.5,0,0,0,4.6,4.6h6a4.6,4.6,0,0,0,4.6-4.6V286.3h10.6a4.5,4.5,0,0,0,4.4-5.6Z" fill="#d3d3d3" style="isolation: isolate"/>
        <path d="M1090.8,213.5a12.2,12.2,0,1,1-12.1,12.2,12.2,12.2,0,0,1,12.1-12.2m22.7,67.2-9.1-36.4a4.7,4.7,0,0,0-4.5-3.5h-2.1a16.5,16.5,0,0,1-13.9,0h-2.2a4.6,4.6,0,0,0-4.4,3.5l-9.1,36.4a4.6,4.6,0,0,0,4.4,5.6h10.6V306a4.6,4.6,0,0,0,4.6,4.6h6.1a4.5,4.5,0,0,0,4.5-4.6V286.3H1109a4.5,4.5,0,0,0,4.5-5.6Z" fill="#d3d3d3" style="isolation: isolate"/>
        <path d="M1150.1,213.5a12.2,12.2,0,1,1-12.1,12.2,12.2,12.2,0,0,1,12.1-12.2m22.6,67.2-9.1-36.4a4.6,4.6,0,0,0-4.4-3.5H1157a16.5,16.5,0,0,1-13.9,0H1141a4.6,4.6,0,0,0-4.4,3.5l-9.1,36.4a4.5,4.5,0,0,0,4.4,5.6h10.6V306a4.5,4.5,0,0,0,4.5,4.6h6.1a4.6,4.6,0,0,0,4.6-4.6V286.3h10.6a4.5,4.5,0,0,0,4.4-5.6Z" fill="#d3d3d3" style="isolation: isolate"/>
        <path d="M617,320.3a12.2,12.2,0,1,1-12.2,12.2A12.2,12.2,0,0,1,617,320.3m22.6,67.2-9.1-36.4a4.6,4.6,0,0,0-4.4-3.5h-2.2a16.5,16.5,0,0,1-13.9,0h-2.1a4.8,4.8,0,0,0-4.5,3.5l-9.1,36.4a4.6,4.6,0,0,0,4.5,5.6h10.6v19.7a4.5,4.5,0,0,0,4.5,4.6H620a4.5,4.5,0,0,0,4.5-4.6V393.1h10.7a4.5,4.5,0,0,0,4.4-5.6Z" fill="#d3d3d3" style="isolation: isolate"/>
        <path d="M676.2,320.3a12.2,12.2,0,1,1-12.1,12.2,12.2,12.2,0,0,1,12.1-12.2m22.6,67.2-9.1-36.4a4.6,4.6,0,0,0-4.4-3.5h-2.1a16.5,16.5,0,0,1-13.9,0h-2.2a4.6,4.6,0,0,0-4.4,3.5l-9.1,36.4a4.5,4.5,0,0,0,4.4,5.6h10.6v19.7a4.5,4.5,0,0,0,4.6,4.6h6a4.5,4.5,0,0,0,4.6-4.6V393.1h10.6a4.4,4.4,0,0,0,4.4-5.6Z" fill="#d3d3d3" style="isolation: isolate"/>
        <path d="M735.5,320.3a12.2,12.2,0,1,1-12.2,12.2,12.2,12.2,0,0,1,12.2-12.2m22.6,67.2L749,351.1a4.7,4.7,0,0,0-4.4-3.5h-2.2a16.5,16.5,0,0,1-13.9,0h-2.2a4.7,4.7,0,0,0-4.4,3.5l-9.1,36.4a4.6,4.6,0,0,0,4.4,5.6h10.7v19.7a4.5,4.5,0,0,0,4.5,4.6h6.1a4.5,4.5,0,0,0,4.5-4.6V393.1h10.6a4.5,4.5,0,0,0,4.5-5.6Z" fill="#d3d3d3" style="isolation: isolate"/>
        <path d="M794.7,320.3a12.2,12.2,0,1,1-12.1,12.2,12.2,12.2,0,0,1,12.1-12.2m22.6,67.2-9.1-36.4a4.6,4.6,0,0,0-4.4-3.5h-2.2a16.5,16.5,0,0,1-13.9,0h-2.1a4.6,4.6,0,0,0-4.4,3.5l-9.1,36.4a4.5,4.5,0,0,0,4.4,5.6h10.6v19.7a4.5,4.5,0,0,0,4.5,4.6h6.1a4.6,4.6,0,0,0,4.6-4.6V393.1h10.6a4.5,4.5,0,0,0,4.4-5.6Z" fill="#d3d3d3" style="isolation: isolate"/>
        <path d="M853.9,320.3a12.2,12.2,0,1,1-12.1,12.2,12.2,12.2,0,0,1,12.1-12.2m22.7,67.2-9.1-36.4a4.8,4.8,0,0,0-4.5-3.5h-2.1a16.5,16.5,0,0,1-13.9,0h-2.2a4.6,4.6,0,0,0-4.4,3.5l-9.1,36.4a4.6,4.6,0,0,0,4.4,5.6h10.6v19.7a4.6,4.6,0,0,0,4.6,4.6H857a4.5,4.5,0,0,0,4.5-4.6V393.1h10.6a4.5,4.5,0,0,0,4.5-5.6Z" fill="#d3d3d3" style="isolation: isolate"/>
        <path d="M913.2,320.3a12.2,12.2,0,1,1-12.1,12.2,12.2,12.2,0,0,1,12.1-12.2m22.6,67.2-9.1-36.4a4.6,4.6,0,0,0-4.4-3.5h-2.2a16.5,16.5,0,0,1-13.9,0h-2.1a4.6,4.6,0,0,0-4.4,3.5l-9.1,36.4a4.5,4.5,0,0,0,4.4,5.6h10.6v19.7a4.5,4.5,0,0,0,4.5,4.6h6.1a4.5,4.5,0,0,0,4.5-4.6V393.1h10.7a4.5,4.5,0,0,0,4.4-5.6Z" fill="#d3d3d3" style="isolation: isolate"/>
        <path d="M972.4,320.3a12.2,12.2,0,1,1,0,24.3,12.2,12.2,0,0,1,0-24.3M995,387.5l-9.1-36.4a4.6,4.6,0,0,0-4.4-3.5h-2.1a16.5,16.5,0,0,1-13.9,0h-2.2a4.6,4.6,0,0,0-4.4,3.5l-9.1,36.4a4.6,4.6,0,0,0,4.4,5.6h10.6v19.7a4.6,4.6,0,0,0,4.6,4.6h6a4.5,4.5,0,0,0,4.6-4.6V393.1h10.6a4.4,4.4,0,0,0,4.4-5.6Z" fill="#d3d3d3" style="isolation: isolate"/>
        <path d="M1031.7,320.3a12.2,12.2,0,1,1-12.2,12.2,12.2,12.2,0,0,1,12.2-12.2m22.6,67.2-9.1-36.4a4.6,4.6,0,0,0-4.4-3.5h-2.2a16.5,16.5,0,0,1-13.9,0h-2.1a4.7,4.7,0,0,0-4.5,3.5l-9.1,36.4a4.6,4.6,0,0,0,4.5,5.6h10.6v19.7a4.5,4.5,0,0,0,4.5,4.6h6.1a4.5,4.5,0,0,0,4.5-4.6V393.1h10.6a4.5,4.5,0,0,0,4.5-5.6Z" fill="#d3d3d3" style="isolation: isolate"/>
        <path d="M1090.9,320.3a12.2,12.2,0,1,1-12.1,12.2,12.2,12.2,0,0,1,12.1-12.2m22.6,67.2-9.1-36.4a4.6,4.6,0,0,0-4.4-3.5h-2.2a16.3,16.3,0,0,1-13.8,0h-2.2a4.6,4.6,0,0,0-4.4,3.5l-9.1,36.4a4.5,4.5,0,0,0,4.4,5.6h10.6v19.7a4.5,4.5,0,0,0,4.6,4.6h6a4.6,4.6,0,0,0,4.6-4.6V393.1h10.6a4.5,4.5,0,0,0,4.4-5.6Z" fill="#d3d3d3" style="isolation: isolate"/>
        <path d="M1150.2,320.3a12.2,12.2,0,1,1-12.2,12.2,12.2,12.2,0,0,1,12.2-12.2m22.6,67.2-9.1-36.4a4.7,4.7,0,0,0-4.5-3.5h-2.1a16.5,16.5,0,0,1-13.9,0H1141a4.6,4.6,0,0,0-4.4,3.5l-9.1,36.4a4.6,4.6,0,0,0,4.4,5.6h10.6v19.7a4.6,4.6,0,0,0,4.6,4.6h6.1a4.5,4.5,0,0,0,4.5-4.6V393.1h10.6a4.5,4.5,0,0,0,4.5-5.6Z" fill="#d3d3d3" style="isolation: isolate"/>
        <path d="M24,427.9A12.1,12.1,0,1,1,11.9,440,12.2,12.2,0,0,1,24,427.9M46.6,495l-9.1-36.4a4.5,4.5,0,0,0-4.4-3.4H31a17.2,17.2,0,0,1-13.9,0H14.9a4.5,4.5,0,0,0-4.4,3.4L1.4,495a4.5,4.5,0,0,0,4.4,5.6H16.4v19.8a4.6,4.6,0,0,0,4.6,4.5h6a4.5,4.5,0,0,0,4.6-4.5V500.6H42.2a4.4,4.4,0,0,0,4.4-5.6Z" fill="#d3d3d3" style="isolation: isolate"/>
        <path d="M83.3,427.9A12.1,12.1,0,1,1,71.1,440a12.1,12.1,0,0,1,12.2-12.1M105.9,495l-9.1-36.4a4.5,4.5,0,0,0-4.4-3.4H90.2a17.2,17.2,0,0,1-13.9,0H74.2a4.6,4.6,0,0,0-4.5,3.4L60.6,495a4.5,4.5,0,0,0,4.5,5.6H75.7v19.8a4.5,4.5,0,0,0,4.5,4.5h6.1a4.5,4.5,0,0,0,4.5-4.5V500.6h10.6a4.5,4.5,0,0,0,4.5-5.6Z" fill="#d3d3d3" style="isolation: isolate"/>
        <path d="M142.5,427.9A12.1,12.1,0,1,1,130.4,440a12.1,12.1,0,0,1,12.1-12.1M165.1,495,156,458.6a4.5,4.5,0,0,0-4.4-3.4h-2.2a17,17,0,0,1-13.8,0h-2.2a4.5,4.5,0,0,0-4.4,3.4L119.9,495a4.5,4.5,0,0,0,4.4,5.6h10.6v19.8a4.5,4.5,0,0,0,4.6,4.5h6a4.6,4.6,0,0,0,4.6-4.5V500.6h10.6a4.5,4.5,0,0,0,4.4-5.6Z" fill="#d3d3d3" style="isolation: isolate"/>
        <path d="M201.8,427.9A12.1,12.1,0,1,1,189.6,440a12.1,12.1,0,0,1,12.2-12.1M224.4,495l-9.1-36.4a4.6,4.6,0,0,0-4.4-3.4h-2.2a17.2,17.2,0,0,1-13.9,0h-2.2a4.6,4.6,0,0,0-4.4,3.4L179.1,495a4.5,4.5,0,0,0,4.4,5.6h10.7v19.8a4.5,4.5,0,0,0,4.5,4.5h6.1a4.5,4.5,0,0,0,4.5-4.5V500.6h10.6a4.5,4.5,0,0,0,4.5-5.6Z" fill="#d3d3d3" style="isolation: isolate"/>
        <path d="M261,427.9A12.1,12.1,0,1,1,248.9,440,12.1,12.1,0,0,1,261,427.9M283.6,495l-9.1-36.4a4.5,4.5,0,0,0-4.4-3.4h-2.2a17.2,17.2,0,0,1-13.9,0h-2.1a4.5,4.5,0,0,0-4.4,3.4L238.4,495a4.4,4.4,0,0,0,4.4,5.6h10.6v19.8a4.5,4.5,0,0,0,4.5,4.5H264a4.6,4.6,0,0,0,4.6-4.5V500.6h10.6a4.5,4.5,0,0,0,4.4-5.6Z" fill="#d3d3d3" style="isolation: isolate"/>
        <path d="M320.2,427.9A12.1,12.1,0,1,1,308.1,440a12.2,12.2,0,0,1,12.1-12.1M342.8,495l-9-36.4a4.7,4.7,0,0,0-4.5-3.4h-2.1a17.2,17.2,0,0,1-13.9,0h-2.2a4.5,4.5,0,0,0-4.4,3.4L297.6,495a4.5,4.5,0,0,0,4.4,5.6h10.6v19.8a4.6,4.6,0,0,0,4.6,4.5h6a4.5,4.5,0,0,0,4.6-4.5V500.6h10.6a4.4,4.4,0,0,0,4.4-5.6Z" fill="#d3d3d3" style="isolation: isolate"/>
        <path d="M379.5,427.9A12.1,12.1,0,1,1,367.3,440a12.1,12.1,0,0,1,12.2-12.1M402.1,495,393,458.6a4.5,4.5,0,0,0-4.4-3.4h-2.2a17.2,17.2,0,0,1-13.9,0h-2.1a4.7,4.7,0,0,0-4.5,3.4L356.8,495a4.5,4.5,0,0,0,4.5,5.6h10.6v19.8a4.5,4.5,0,0,0,4.5,4.5h6.1a4.5,4.5,0,0,0,4.5-4.5V500.6h10.7a4.5,4.5,0,0,0,4.4-5.6Z" fill="#d3d3d3" style="isolation: isolate"/>
        <path d="M438.7,427.9A12.1,12.1,0,1,1,426.6,440a12.2,12.2,0,0,1,12.1-12.1M461.3,495l-9.1-36.4a4.5,4.5,0,0,0-4.4-3.4h-2.1a17.2,17.2,0,0,1-13.9,0h-2.2a4.5,4.5,0,0,0-4.4,3.4L416.1,495a4.5,4.5,0,0,0,4.4,5.6h10.6v19.8a4.5,4.5,0,0,0,4.6,4.5h6a4.5,4.5,0,0,0,4.6-4.5V500.6h10.6a4.4,4.4,0,0,0,4.4-5.6Z" fill="#d3d3d3" style="isolation: isolate"/>
        <path d="M498,427.9A12.1,12.1,0,1,1,485.8,440,12.1,12.1,0,0,1,498,427.9M520.6,495l-9.1-36.4a4.6,4.6,0,0,0-4.4-3.4h-2.2a17.2,17.2,0,0,1-13.9,0h-2.2a4.6,4.6,0,0,0-4.4,3.4L475.3,495a4.5,4.5,0,0,0,4.4,5.6h10.7v19.8a4.5,4.5,0,0,0,4.5,4.5H501a4.5,4.5,0,0,0,4.5-4.5V500.6h10.6a4.5,4.5,0,0,0,4.5-5.6Z" fill="#d3d3d3" style="isolation: isolate"/>
        <path d="M557.2,427.9A12.1,12.1,0,1,1,545.1,440a12.1,12.1,0,0,1,12.1-12.1M579.8,495l-9.1-36.4a4.5,4.5,0,0,0-4.4-3.4h-2.2a17.2,17.2,0,0,1-13.9,0h-2.1a4.5,4.5,0,0,0-4.4,3.4L534.6,495a4.5,4.5,0,0,0,4.4,5.6h10.6v19.8a4.5,4.5,0,0,0,4.6,4.5h6a4.6,4.6,0,0,0,4.6-4.5V500.6h10.6a4.5,4.5,0,0,0,4.4-5.6Z" fill="#d3d3d3" style="isolation: isolate"/>
        <path d="M617.1,428A12.1,12.1,0,1,1,605,440.1,12.2,12.2,0,0,1,617.1,428m22.6,67.1-9.1-36.4a4.5,4.5,0,0,0-4.4-3.4h-2.1a17.2,17.2,0,0,1-13.9,0H608a4.5,4.5,0,0,0-4.4,3.4l-9.1,36.4a4.6,4.6,0,0,0,4.4,5.7h10.6v19.7a4.6,4.6,0,0,0,4.6,4.5h6a4.5,4.5,0,0,0,4.6-4.5V500.8h10.6a4.5,4.5,0,0,0,4.4-5.7Z" fill="#d3d3d3" style="isolation: isolate"/>
        <path d="M676.4,428a12.1,12.1,0,1,1-12.2,12.1A12.1,12.1,0,0,1,676.4,428M699,495.1l-9.1-36.4a4.5,4.5,0,0,0-4.4-3.4h-2.2a17.2,17.2,0,0,1-13.9,0h-2.1a4.7,4.7,0,0,0-4.5,3.4l-9.1,36.4a4.6,4.6,0,0,0,4.5,5.7h10.6v19.7a4.5,4.5,0,0,0,4.5,4.5h6.1a4.5,4.5,0,0,0,4.5-4.5V500.8h10.7a4.6,4.6,0,0,0,4.4-5.7Z" fill="#d3d3d3" style="isolation: isolate"/>
        <path d="M735.6,428a12.1,12.1,0,1,1-12.1,12.1A12.1,12.1,0,0,1,735.6,428m22.6,67.1-9.1-36.4a4.5,4.5,0,0,0-4.4-3.4h-2.1a17.2,17.2,0,0,1-13.9,0h-2.2a4.5,4.5,0,0,0-4.4,3.4L713,495.1a4.6,4.6,0,0,0,4.4,5.7H728v19.7a4.5,4.5,0,0,0,4.6,4.5h6a4.6,4.6,0,0,0,4.6-4.5V500.8h10.6a4.6,4.6,0,0,0,4.4-5.7Z" fill="#d3d3d3" style="isolation: isolate"/>
        <path d="M794.9,428a12.1,12.1,0,1,1-12.2,12.1A12.1,12.1,0,0,1,794.9,428m22.6,67.1-9.1-36.4a4.6,4.6,0,0,0-4.4-3.4h-2.2a17.2,17.2,0,0,1-13.9,0h-2.2a4.6,4.6,0,0,0-4.4,3.4l-9.1,36.4a4.6,4.6,0,0,0,4.4,5.7h10.7v19.7a4.5,4.5,0,0,0,4.5,4.5h6.1a4.5,4.5,0,0,0,4.5-4.5V500.8H813a4.6,4.6,0,0,0,4.5-5.7Z" fill="#d3d3d3" style="isolation: isolate"/>
        <path d="M854.1,428A12.1,12.1,0,1,1,842,440.1,12.1,12.1,0,0,1,854.1,428m22.6,67.1-9.1-36.4a4.5,4.5,0,0,0-4.4-3.4H861a17.2,17.2,0,0,1-13.9,0H845a4.5,4.5,0,0,0-4.4,3.4l-9.1,36.4a4.5,4.5,0,0,0,4.4,5.7h10.6v19.7A4.5,4.5,0,0,0,851,525h6.1a4.6,4.6,0,0,0,4.6-4.5V500.8h10.6a4.6,4.6,0,0,0,4.4-5.7Z" fill="#d3d3d3" style="isolation: isolate"/>
        <path d="M913.3,428a12.1,12.1,0,1,1-12.1,12.1A12.2,12.2,0,0,1,913.3,428M936,495.1l-9.1-36.4a4.7,4.7,0,0,0-4.5-3.4h-2.1a17.2,17.2,0,0,1-13.9,0h-2.2a4.5,4.5,0,0,0-4.4,3.4l-9.1,36.4a4.6,4.6,0,0,0,4.4,5.7h10.6v19.7a4.6,4.6,0,0,0,4.6,4.5h6.1a4.5,4.5,0,0,0,4.5-4.5V500.8h10.6a4.6,4.6,0,0,0,4.5-5.7Z" fill="#d3d3d3" style="isolation: isolate"/>
        <path d="M972.6,428a12.1,12.1,0,1,1-12.2,12.1A12.1,12.1,0,0,1,972.6,428m22.6,67.1-9.1-36.4a4.5,4.5,0,0,0-4.4-3.4h-2.2a17.2,17.2,0,0,1-13.9,0h-2.1a4.7,4.7,0,0,0-4.5,3.4l-9.1,36.4a4.6,4.6,0,0,0,4.5,5.7H965v19.7a4.5,4.5,0,0,0,4.5,4.5h6.1a4.5,4.5,0,0,0,4.5-4.5V500.8h10.7a4.6,4.6,0,0,0,4.4-5.7Z" fill="#d3d3d3" style="isolation: isolate"/>
        <path d="M1031.8,428a12.1,12.1,0,1,1-12.1,12.1,12.2,12.2,0,0,1,12.1-12.1m22.6,67.1-9.1-36.4a4.5,4.5,0,0,0-4.4-3.4h-2.1a17.2,17.2,0,0,1-13.9,0h-2.2a4.5,4.5,0,0,0-4.4,3.4l-9.1,36.4a4.6,4.6,0,0,0,4.4,5.7h10.6v19.7a4.5,4.5,0,0,0,4.6,4.5h6a4.5,4.5,0,0,0,4.6-4.5V500.8H1050a4.5,4.5,0,0,0,4.4-5.7Z" fill="#d3d3d3" style="isolation: isolate"/>
        <path d="M1091.1,428a12.1,12.1,0,1,1-12.2,12.1,12.1,12.1,0,0,1,12.2-12.1m22.6,67.1-9.1-36.4a4.6,4.6,0,0,0-4.4-3.4H1098a17.2,17.2,0,0,1-13.9,0h-2.2a4.6,4.6,0,0,0-4.4,3.4l-9.1,36.4a4.6,4.6,0,0,0,4.4,5.7h10.7v19.7a4.5,4.5,0,0,0,4.5,4.5h6.1a4.5,4.5,0,0,0,4.5-4.5V500.8h10.6a4.6,4.6,0,0,0,4.5-5.7Z" fill="#d3d3d3" style="isolation: isolate"/>
        <path d="M1150.3,428a12.1,12.1,0,1,1-12.1,12.1,12.1,12.1,0,0,1,12.1-12.1m22.6,67.1-9.1-36.4a4.5,4.5,0,0,0-4.4-3.4h-2.2a17.2,17.2,0,0,1-13.9,0h-2.1a4.5,4.5,0,0,0-4.4,3.4l-9.1,36.4a4.6,4.6,0,0,0,4.4,5.7h10.6v19.7a4.5,4.5,0,0,0,4.6,4.5h6a4.6,4.6,0,0,0,4.6-4.5V500.8h10.6a4.6,4.6,0,0,0,4.4-5.7Z" fill="#d3d3d3" style="isolation: isolate"/>
        <path d="M24,534.6a12.2,12.2,0,1,1-12.1,12.2A12.2,12.2,0,0,1,24,534.6m22.6,67.2-9.1-36.4a4.6,4.6,0,0,0-4.4-3.5H31a16.5,16.5,0,0,1-13.9,0H14.9a4.6,4.6,0,0,0-4.4,3.5L1.4,601.8a4.5,4.5,0,0,0,4.4,5.6H16.4v19.7a4.5,4.5,0,0,0,4.6,4.6h6a4.6,4.6,0,0,0,4.6-4.6V607.4H42.2a4.5,4.5,0,0,0,4.4-5.6Z" fill="#d3d3d3" style="isolation: isolate"/>
      </g>
    </g>
  </g>
</svg>
