<svg xmlns="http://www.w3.org/2000/svg" viewBox="0 0 425.4 512.1">
  <title>Asset 3</title>
  <g id="Layer_2" data-name="Layer 2">
    <g id="Layer_1-2" data-name="Layer 1">
      <g>
        <path d="M96,.1a64,64,0,1,1-64,64A64,64,0,0,1,96,.1m48,144H132.6a87.8,87.8,0,0,1-73.2,0H48a48,48,0,0,0-48,48v136a24,24,0,0,0,24,24H40v136a24,24,0,0,0,24,24h64a24,24,0,0,0,24-24v-136h16a24,24,0,0,0,24-24v-136A48,48,0,0,0,144,144.1Z" opacity="0.1"/>
        <path d="M305.4,0a64,64,0,1,1-64,64,64,64,0,0,1,64-64M424.7,354.2l-48-192A24.1,24.1,0,0,0,353.4,144H342.1a88.1,88.1,0,0,1-73.3,0H257.4a24.1,24.1,0,0,0-23.3,18.2l-48,192A24.1,24.1,0,0,0,209.4,384h56V488a24,24,0,0,0,24,24h32a23.9,23.9,0,0,0,24-24V384h56a24,24,0,0,0,23.3-29.8Z" opacity="0.1"/>
      </g>
    </g>
  </g>
</svg>
