<svg xmlns="http://www.w3.org/2000/svg" viewBox="0 0 454.8 532.9">
  <title>people2</title>
  <g id="Layer_2" data-name="Layer 2">
    <g id="Layer_1-2" data-name="Layer 1">
      <g>
        <rect width="454.5" height="532.88" fill="#fff"/>
        <g>
          <path d="M106.8,10.1a64,64,0,1,1-64,64,63.9,63.9,0,0,1,64-64m48,144H143.5a88.1,88.1,0,0,1-73.3,0H58.8a48,48,0,0,0-48,48v136a24.1,24.1,0,0,0,24,24h16v136a24.1,24.1,0,0,0,24,24h64a24,24,0,0,0,24-24v-136h16a24,24,0,0,0,24-24v-136A47.9,47.9,0,0,0,154.8,154.1Z" opacity="0.03"/>
          <path d="M334.8,11a64,64,0,1,1-64,64,64,64,0,0,1,64-64M454.1,365.1l-48-192A24.1,24.1,0,0,0,382.8,155H371.4a88.1,88.1,0,0,1-73.3,0H286.8a24.1,24.1,0,0,0-23.3,18.1l-48,192A24.1,24.1,0,0,0,238.8,395h56V499a24,24,0,0,0,24,24h32a24.1,24.1,0,0,0,24-24V395h56a24.1,24.1,0,0,0,23.3-29.9Z" opacity="0.03"/>
        </g>
      </g>
    </g>
  </g>
</svg>
